<svg width="24" height="35" viewBox="0 0 24 35" fill="none" xmlns="http://www.w3.org/2000/svg">
<path d="M2.15969 22.007C2.65375 22.5048 2.65375 23.312 2.15969 23.8098C1.66563 24.3076 0.864604 24.3076 0.370544 23.8098C-0.123515 23.312 -0.123515 22.5048 0.370544 22.007C0.864604 21.5092 1.66563 21.5092 2.15969 22.007Z" fill="#FF0000"/>
<path d="M7.52713 16.5986C8.02119 17.0964 8.02119 17.9036 7.52713 18.4014C7.03307 18.8992 6.23205 18.8992 5.73799 18.4014C5.24393 17.9036 5.24393 17.0964 5.73799 16.5986C6.23205 16.1008 7.03307 16.1008 7.52713 16.5986Z" fill="#FF0000"/>
<path d="M12.8946 11.1902C13.3886 11.688 13.3886 12.4952 12.8946 12.993C12.4005 13.4908 11.5995 13.4908 11.1054 12.993C10.6114 12.4952 10.6114 11.688 11.1054 11.1902C11.5995 10.6924 12.4005 10.6924 12.8946 11.1902Z" fill="#FF0000"/>
<path d="M18.262 5.78178C18.7561 6.27961 18.7561 7.08675 18.262 7.58458C17.768 8.08242 16.9669 8.08242 16.4729 7.58458C15.9788 7.08675 15.9788 6.27961 16.4729 5.78178C16.9669 5.28395 17.768 5.28395 18.262 5.78178Z" fill="#FF0000"/>
<path d="M23.6295 0.373373C24.1235 0.871203 24.1235 1.67835 23.6295 2.17618C23.1354 2.67401 22.3344 2.67401 21.8403 2.17618C21.3463 1.67835 21.3463 0.871203 21.8403 0.373373C22.3344 -0.124458 23.1354 -0.124458 23.6295 0.373373Z" fill="#FF0000"/>
<path d="M12.8946 22.007C13.3886 22.5048 13.3886 23.312 12.8946 23.8098C12.4005 24.3076 11.5995 24.3076 11.1054 23.8098C10.6114 23.312 10.6114 22.5048 11.1054 22.007C11.5995 21.5092 12.4005 21.5092 12.8946 22.007Z" fill="#FF0000"/>
<path d="M18.262 16.5986C18.7561 17.0964 18.7561 17.9036 18.262 18.4014C17.768 18.8992 16.9669 18.8992 16.4729 18.4014C15.9788 17.9036 15.9788 17.0964 16.4729 16.5986C16.9669 16.1008 17.768 16.1008 18.262 16.5986Z" fill="#FF0000"/>
<path d="M23.6295 22.007C24.1235 22.5048 24.1235 23.312 23.6295 23.8098C23.1354 24.3076 22.3344 24.3076 21.8403 23.8098C21.3463 23.312 21.3463 22.5048 21.8403 22.007C22.3344 21.5092 23.1354 21.5092 23.6295 22.007Z" fill="#FF0000"/>
<path d="M23.6295 11.1902C24.1235 11.688 24.1235 12.4952 23.6295 12.993C23.1354 13.4908 22.3344 13.4908 21.8403 12.993C21.3463 12.4952 21.3463 11.688 21.8403 11.1902C22.3344 10.6924 23.1354 10.6924 23.6295 11.1902Z" fill="#FF0000"/>
<path d="M18.262 27.4154C18.7561 27.9132 18.7561 28.7204 18.262 29.2182C17.768 29.716 16.9669 29.716 16.4729 29.2182C15.9788 28.7204 15.9788 27.9132 16.4729 27.4154C16.9669 26.9176 17.768 26.9176 18.262 27.4154Z" fill="#FF0000"/>
<path d="M12.8946 32.8238C13.3886 33.3217 13.3886 34.1288 12.8946 34.6266C12.4005 35.1245 11.5995 35.1245 11.1054 34.6266C10.6114 34.1288 10.6114 33.3217 11.1054 32.8238C11.5995 32.326 12.4005 32.326 12.8946 32.8238Z" fill="#FF0000"/>
</svg>
